<?xml version="1.0" encoding="UTF-8"?>
<svg width="800px" height="800px" viewBox="0 0 166.942 166.942" xmlns="http://www.w3.org/2000/svg">
  <g>
    <ellipse cx="84.75" cy="84.554" rx="57" ry="46.798" fill="#FFFFFF"/>
    
    <path d="M128.822 53.13C110.747 36.173 85.815 36.641 83.558 36.727C81.302 36.641 57.725 36.173 39.65 53.13C32.465 59.87 26.763 68.496 25.269 78.378C23.699 88.761 26.699 100.046 32.868 108.491C34.452 110.658 36.228 112.681 38.139 114.564C39.243 115.651 40.391 116.691 41.577 117.688C42.238 118.245 42.911 118.786 43.593 119.315C43.874 119.533 45.601 120.538 45.616 120.825C45.616 120.825 42.976 73.363 62.621 73.363C82.264 73.363 76.215 107.632 76.215 107.632L83.928 111.688L91.087 107.448C91.087 107.448 84.881 71.35 104.481 71.35C124.281 71.35 121.884 120.784 121.884 120.784C129.488 115.386 136.124 108.263 139.558 99.483C141.282 95.078 142.33 90.083 142.739 85.364C143.023 82.082 142.831 78.767 142.177 75.54C140.399 66.787 135.265 59.174 128.822 53.13Z" 
          fill="black" stroke-miterlimit="8.25"/>

    <path d="M92.078,107.806c0,1.715-3.733,6.826-8.338,6.826s-8.339-5.111-8.339-6.826 3.733-3.106 8.339-3.106 8.338,1.39 8.338,3.106Z"
          fill="#FF8800" stroke-dasharray="12"/>

    <path d="M62.49 91.116L68.824 102.867H56.155L62.49 91.116Z"
          fill="black" stroke="black" stroke-miterlimit="30"/>


<rect x="99.007" y="106.795" width="13.678" height="4.209" style="stroke: rgb(0, 0, 0); transform-origin: 106.366px 109.346px;" transform="matrix(0.707052, 0.707161, -0.707161, 0.707052, -1.084893, -10.719214)"></rect>
<rect x="99.007" y="106.795" width="13.678" height="4.209" style="stroke: rgb(0, 0, 0); stroke-width: 1; transform-origin: 106.366px 109.346px;" transform="matrix(0.707161, -0.707053, 0.707053, 0.707161, -0.477276, -11.424647)"></rect>

  </g>
</svg>
